<?xml version="1.0" encoding="iso-8859-1"?>
<!-- Generator: Adobe Illustrator 19.0.0, SVG Export Plug-In . SVG Version: 6.00 Build 0)  -->
<svg version="1.1" id="Layer_1" xmlns="http://www.w3.org/2000/svg" xmlns:xlink="http://www.w3.org/1999/xlink" x="0px" y="0px"
	 viewBox="0 0 512 512" style="enable-background:new 0 0 512 512;" xml:space="preserve">
<polygon style="fill:#CEE8FA;" points="348.475,290.822 291.92,290.822 291.92,234.268 220.079,234.268 220.079,290.822 
	163.524,290.822 163.524,362.663 220.079,362.663 220.079,419.218 291.92,419.218 291.92,362.663 348.475,362.663 "/>
<g>
	<path style="fill:#2D527C;" d="M291.92,434.411h-71.841c-8.39,0-15.193-6.802-15.193-15.193v-41.362h-41.362
		c-8.39,0-15.193-6.802-15.193-15.193v-71.841c0-8.391,6.803-15.193,15.193-15.193h41.362v-41.362
		c0-8.391,6.804-15.193,15.193-15.193h71.841c8.39,0,15.193,6.802,15.193,15.193v41.362h41.362c8.39,0,15.193,6.802,15.193,15.193
		v71.841c0,8.391-6.804,15.193-15.193,15.193h-41.362v41.362C307.113,427.609,300.311,434.411,291.92,434.411z M235.272,404.025
		h41.455v-41.362c0-8.391,6.803-15.193,15.193-15.193h41.362v-41.455H291.92c-8.39,0-15.193-6.802-15.193-15.193V249.46h-41.455
		v41.362c0,8.391-6.803,15.193-15.193,15.193h-41.362v41.455h41.362c8.39,0,15.193,6.802,15.193,15.193V404.025z"/>
	<path style="fill:#2D527C;" d="M402.614,512H109.386c-8.39,0-15.193-6.802-15.193-15.193V231.748
		c0-33.764,19.771-64.808,50.365-79.088l43.887-20.482V69.776c0-8.391,6.804-15.193,15.193-15.193h104.724
		c8.39,0,15.193,6.802,15.193,15.193v40.999c0,8.391-6.804,15.193-15.193,15.193s-15.193-6.802-15.193-15.193V84.969h-74.337v56.885
		c0,5.903-3.418,11.27-8.768,13.768l-52.654,24.573c-19.944,9.309-32.831,29.545-32.831,51.554v249.866h262.842V231.748
		c0-22.009-12.887-42.245-32.831-51.554c-7.604-3.549-10.89-12.589-7.341-20.193c3.548-7.603,12.588-10.89,20.193-7.341
		c30.596,14.28,50.365,45.324,50.365,79.088v265.059C417.807,505.198,411.004,512,402.614,512z"/>
	<path style="fill:#2D527C;" d="M332.481,84.969H179.516c-8.39,0-15.193-6.802-15.193-15.193s6.804-15.193,15.193-15.193h152.965
		c8.39,0,15.193,6.802,15.193,15.193S340.872,84.969,332.481,84.969z"/>
	<path style="fill:#2D527C;" d="M285.955,195.322h-151.5c-8.39,0-15.193-6.802-15.193-15.193s6.804-15.193,15.193-15.193h151.502
		c8.39,0,15.193,6.802,15.193,15.193S294.346,195.322,285.955,195.322z"/>
</g>
<rect x="226.925" y="15.193" style="fill:#CEE8FA;" width="58.144" height="54.583"/>
<path style="fill:#2D527C;" d="M285.069,84.969h-58.141c-8.39,0-15.193-6.802-15.193-15.193V15.193
	C211.735,6.802,218.538,0,226.928,0h58.141c8.39,0,15.193,6.802,15.193,15.193v54.583C300.262,78.167,293.46,84.969,285.069,84.969z
	 M242.122,54.583h27.755V30.386h-27.755V54.583z"/>
<g>
</g>
<g>
</g>
<g>
</g>
<g>
</g>
<g>
</g>
<g>
</g>
<g>
</g>
<g>
</g>
<g>
</g>
<g>
</g>
<g>
</g>
<g>
</g>
<g>
</g>
<g>
</g>
<g>
</g>
</svg>
