<?xml version="1.0" encoding="iso-8859-1"?>
<!-- Generator: Adobe Illustrator 19.0.0, SVG Export Plug-In . SVG Version: 6.00 Build 0)  -->
<svg version="1.1" id="Layer_1" xmlns="http://www.w3.org/2000/svg" xmlns:xlink="http://www.w3.org/1999/xlink" x="0px" y="0px"
	 viewBox="0 0 512 512" style="enable-background:new 0 0 512 512;" xml:space="preserve">
<path style="fill:#2D527C;" d="M419.934,512H92.067c-43.493,0-78.879-35.385-78.879-78.877V78.879C13.189,35.385,48.574,0,92.067,0
	h327.865c43.493,0,78.879,35.385,78.879,78.879v75.078c0,8.567-6.948,15.515-15.515,15.515s-15.515-6.948-15.515-15.515V78.879
	c0-26.383-21.465-47.849-47.849-47.849H92.067c-26.383,0-47.849,21.465-47.849,47.849v354.244c0,26.383,21.465,47.847,47.849,47.847
	h327.865c26.383,0,47.849-21.464,47.849-47.847V247.565c0-8.567,6.948-15.515,15.515-15.515s15.515,6.948,15.515,15.515v185.558
	C498.811,476.615,463.428,512,419.934,512z"/>
<polygon style="fill:#CEE8FA;" points="408.897,214.371 368.502,144.404 296.397,186.032 296.397,102.774 215.605,102.774 
	215.605,186.032 143.5,144.404 103.105,214.371 175.21,256.001 103.105,297.631 143.5,367.598 215.605,325.968 215.605,409.228 
	296.397,409.228 296.397,325.968 368.502,367.598 408.897,297.631 336.792,256.001 "/>
<path style="fill:#2D527C;" d="M296.397,424.743h-80.79c-8.567,0-15.515-6.948-15.515-15.515v-56.387l-48.834,28.193
	c-7.424,4.287-16.908,1.741-21.194-5.679l-40.395-69.967c-4.285-7.421-1.742-16.908,5.679-21.194l48.832-28.194l-48.832-28.194
	c-7.421-4.285-9.964-13.773-5.679-21.194l40.395-69.967c4.284-7.421,13.77-9.962,21.194-5.679l48.834,28.193v-56.387
	c0-8.567,6.948-15.515,15.515-15.515h80.79c8.567,0,15.515,6.948,15.515,15.515v56.387l48.832-28.192
	c7.421-4.285,16.91-1.741,21.194,5.679l40.397,69.967c2.057,3.564,2.616,7.798,1.55,11.773c-1.066,3.975-3.665,7.363-7.228,9.421
	l-48.832,28.194l48.832,28.194c3.564,2.057,6.164,5.447,7.228,9.421c1.064,3.973,0.507,8.209-1.55,11.773l-40.397,69.967
	c-4.287,7.419-13.77,9.962-21.194,5.679l-48.832-28.193v56.387C311.912,417.795,304.964,424.743,296.397,424.743z M231.12,393.713
	h49.76v-67.744c0-5.542,2.957-10.665,7.758-13.436c4.8-2.773,10.715-2.773,15.515,0l58.667,33.871l24.882-43.093l-58.667-33.873
	c-4.8-2.771-7.758-7.894-7.758-13.436c0-5.542,2.957-10.665,7.758-13.436l58.667-33.873L362.82,165.6l-58.667,33.871
	c-4.8,2.773-10.715,2.773-15.515,0c-4.8-2.771-7.758-7.894-7.758-13.436v-67.747h-49.76v67.744c0,5.542-2.957,10.665-7.758,13.436
	c-4.8,2.773-10.715,2.773-15.515,0l-58.669-33.871l-24.88,43.093l58.667,33.873c4.8,2.771,7.758,7.894,7.758,13.436
	s-2.957,10.665-7.758,13.436l-58.667,33.873l24.88,43.093l58.669-33.871c4.8-2.773,10.715-2.773,15.515,0
	c4.8,2.771,7.758,7.894,7.758,13.436L231.12,393.713L231.12,393.713z"/>
<g>
</g>
<g>
</g>
<g>
</g>
<g>
</g>
<g>
</g>
<g>
</g>
<g>
</g>
<g>
</g>
<g>
</g>
<g>
</g>
<g>
</g>
<g>
</g>
<g>
</g>
<g>
</g>
<g>
</g>
</svg>
