<?xml version="1.0" encoding="iso-8859-1"?>
<!-- Generator: Adobe Illustrator 19.0.0, SVG Export Plug-In . SVG Version: 6.00 Build 0)  -->
<svg version="1.1" id="Layer_1" xmlns="http://www.w3.org/2000/svg" xmlns:xlink="http://www.w3.org/1999/xlink" x="0px" y="0px"
	 viewBox="0 0 512 512" style="enable-background:new 0 0 512 512;" xml:space="preserve">
<path style="fill:#2D527C;" d="M134.421,463.656c-4.45,0-8.853-1.972-11.81-5.745c-0.034-0.045-0.129-0.163-0.232-0.288
	L72.69,407.936c-10.363-10.363-16.07-24.142-16.07-38.796c0-14.654,5.706-28.433,16.07-38.796l53.251-53.251
	c21.392-21.391,56.2-21.392,77.59,0l16.978,16.978c15.57-13.827,32.037-29.413,49.102-46.481
	c17.071-17.071,32.656-33.542,46.475-49.116l-16.968-16.968c-10.363-10.363-16.07-24.142-16.07-38.796s5.706-28.433,16.07-38.796
	l53.249-53.249c10.363-10.362,24.142-16.07,38.796-16.07c0.002,0,0,0,0.002,0c14.654,0,28.433,5.708,38.794,16.07l49.919,49.921
	c1.346,1.345,2.529,2.862,3.502,4.501c3.735,6.275,10.745,24.855-4.835,61.662c-18.052,42.634-60.566,97.611-126.36,163.408
	c-36.791,36.788-70.437,66.553-100.005,88.465c-6.652,4.93-16.043,3.534-20.972-3.119c-4.931-6.652-3.534-16.043,3.119-20.972
	c28.386-21.037,60.905-49.829,96.656-85.579c63.053-63.053,103.411-114.832,119.95-153.894c9.129-21.564,7.444-31.718,6.73-34.283
	l-48.907-48.909c-9.701-9.7-25.485-9.702-35.184,0l-53.249,53.249c-9.701,9.7-9.701,25.485,0,35.184l26.875,26.875
	c5.543,5.543,5.88,14.42,0.775,20.367c-16.447,19.161-35.677,39.768-57.156,61.247c-21.472,21.475-42.072,40.708-61.229,57.165
	c-5.946,5.11-14.827,4.774-20.371-0.772l-26.889-26.89c-9.7-9.701-25.485-9.701-35.184,0l-53.251,53.251
	c-9.7,9.701-9.7,25.485,0,35.184l49.919,49.919c0.891,0.892,1.796,1.994,2.397,2.763c5.108,6.517,3.966,15.941-2.552,21.049
	C140.916,462.613,137.655,463.656,134.421,463.656z"/>
<polygon style="fill:#CEE8FA;" points="38.764,72.826 96.597,72.826 96.597,14.993 170.062,14.993 170.062,72.826 227.897,72.826 
	227.897,146.291 170.062,146.291 170.062,204.126 96.597,204.126 96.597,146.291 38.764,146.291 "/>
<g>
	<path style="fill:#2D527C;" d="M170.062,219.119H96.597c-8.281,0-14.993-6.712-14.993-14.993v-42.841H38.763
		c-8.281,0-14.993-6.712-14.993-14.993V72.826c0-8.281,6.712-14.993,14.993-14.993h42.841v-42.84C81.604,6.712,88.316,0,96.597,0
		h73.466c8.281,0,14.993,6.712,14.993,14.993v42.84h42.841c8.281,0,14.993,6.712,14.993,14.993v73.466
		c0,8.281-6.712,14.993-14.993,14.993h-42.841v42.841C185.056,212.406,178.343,219.119,170.062,219.119z M111.59,189.133h43.48
		v-42.841c0-8.281,6.712-14.993,14.993-14.993h42.841v-43.48h-42.841c-8.281,0-14.993-6.712-14.993-14.993v-42.84h-43.48v42.84
		c0,8.281-6.712,14.993-14.993,14.993H53.756v43.48h42.841c8.281,0,14.993,6.712,14.993,14.993V189.133z"/>
	<path style="fill:#2D527C;" d="M86.066,512c-3.838,0-7.673-1.463-10.602-4.391c-5.855-5.855-5.855-15.348,0-21.203l48.345-48.345
		c5.855-5.853,15.348-5.855,21.203,0c5.855,5.855,5.855,15.348,0,21.203l-48.345,48.345C93.739,510.537,89.902,512,86.066,512z"/>
</g>
<g>
</g>
<g>
</g>
<g>
</g>
<g>
</g>
<g>
</g>
<g>
</g>
<g>
</g>
<g>
</g>
<g>
</g>
<g>
</g>
<g>
</g>
<g>
</g>
<g>
</g>
<g>
</g>
<g>
</g>
</svg>
