<?xml version="1.0" encoding="iso-8859-1"?>
<!-- Generator: Adobe Illustrator 19.0.0, SVG Export Plug-In . SVG Version: 6.00 Build 0)  -->
<svg version="1.1" id="Layer_1" xmlns="http://www.w3.org/2000/svg" xmlns:xlink="http://www.w3.org/1999/xlink" x="0px" y="0px"
	 viewBox="0 0 511.999 511.999" style="enable-background:new 0 0 511.999 511.999;" xml:space="preserve">
<polygon style="fill:#CEE8FA;" points="423.949,213.895 357.66,213.895 357.66,147.606 273.453,147.606 273.453,213.895 
	207.162,213.895 207.162,298.102 273.453,298.102 273.453,364.391 357.66,364.391 357.66,298.102 423.949,298.102 "/>
<g>
	<path style="fill:#2D527C;" d="M357.659,379.206h-84.208c-8.182,0-14.815-6.633-14.815-14.815v-51.474h-51.474
		c-8.182,0-14.815-6.633-14.815-14.815v-84.208c0-8.182,6.633-14.815,14.815-14.815h51.474v-51.474
		c0-8.182,6.633-14.815,14.815-14.815h84.208c8.182,0,14.815,6.633,14.815,14.815v51.474h51.476c8.182,0,14.815,6.633,14.815,14.815
		v84.208c0,8.182-6.633,14.815-14.815,14.815h-51.476v51.474C372.474,372.574,365.841,379.206,357.659,379.206z M288.267,349.577
		h54.578v-51.474c0-8.182,6.633-14.815,14.815-14.815h51.476V228.71H357.66c-8.182,0-14.815-6.633-14.815-14.815V162.42h-54.578
		v51.474c0,8.182-6.633,14.815-14.815,14.815h-51.474v54.578h51.474c8.182,0,14.815,6.633,14.815,14.815V349.577L288.267,349.577z"
		/>
	<path style="fill:#2D527C;" d="M497.185,459.851h-63.408c-8.182,0-14.815-6.633-14.815-14.815c0-8.182,6.633-14.815,14.815-14.815
		h48.593V81.777H148.741v348.444h208.74c8.182,0,14.815,6.633,14.815,14.815c0,8.182-6.633,14.815-14.815,14.815H133.926
		c-8.182,0-14.815-6.633-14.815-14.815V66.962c0-8.182,6.633-14.815,14.815-14.815h363.257c8.182,0,14.815,6.633,14.815,14.815
		v378.074C512,453.218,505.367,459.851,497.185,459.851z"/>
	<path style="fill:#2D527C;" d="M130.223,176.37H69.483c-8.182,0-14.815-6.633-14.815-14.815s6.633-14.815,14.815-14.815h60.739
		c8.182,0,14.815,6.633,14.815,14.815S138.405,176.37,130.223,176.37z"/>
	<path style="fill:#2D527C;" d="M130.223,365.257H69.483c-8.182,0-14.815-6.633-14.815-14.815c0-8.182,6.633-14.815,14.815-14.815
		h60.739c8.182,0,14.815,6.633,14.815,14.815C145.037,358.624,138.405,365.257,130.223,365.257z"/>
</g>
<rect x="14.815" y="84.146" style="fill:#CEE8FA;" width="54.668" height="343.705"/>
<path style="fill:#2D527C;" d="M69.483,442.666H14.815C6.633,442.666,0,436.033,0,427.851V84.146
	c0-8.182,6.633-14.815,14.815-14.815h54.668c8.182,0,14.815,6.633,14.815,14.815v343.705
	C84.298,436.033,77.665,442.666,69.483,442.666z M29.63,413.036h25.039V98.961H29.63V413.036z"/>
<g>
</g>
<g>
</g>
<g>
</g>
<g>
</g>
<g>
</g>
<g>
</g>
<g>
</g>
<g>
</g>
<g>
</g>
<g>
</g>
<g>
</g>
<g>
</g>
<g>
</g>
<g>
</g>
<g>
</g>
</svg>
