<?xml version="1.0" encoding="iso-8859-1"?>
<!-- Generator: Adobe Illustrator 19.0.0, SVG Export Plug-In . SVG Version: 6.00 Build 0)  -->
<svg version="1.1" id="Layer_1" xmlns="http://www.w3.org/2000/svg" xmlns:xlink="http://www.w3.org/1999/xlink" x="0px" y="0px"
	 viewBox="0 0 512 512" style="enable-background:new 0 0 512 512;" xml:space="preserve">
<rect x="120.639" y="71.204" style="fill:#CEE8FA;" width="117.344" height="234.688"/>
<g>
	<path style="fill:#2D527C;" d="M237.983,320.941H120.639c-8.309,0-15.044-6.735-15.044-15.044V71.208
		c0-8.309,6.735-15.044,15.044-15.044h117.344c8.309,0,15.044,6.735,15.044,15.044v234.688
		C253.027,314.204,246.292,320.941,237.983,320.941z M135.683,290.853h87.256v-204.6h-87.256V290.853z"/>
	<path style="fill:#2D527C;" d="M243.166,446.811H116.795c-8.309,0-15.044-6.735-15.044-15.044s6.735-15.044,15.044-15.044h126.371
		c8.309,0,15.044,6.735,15.044,15.044S251.475,446.811,243.166,446.811z"/>
	<path style="fill:#2D527C;" d="M314.374,446.811h-9.478c-8.309,0-15.044-6.735-15.044-15.044s6.735-15.044,15.044-15.044h9.478
		c49.641,0,90.026-40.386,90.026-90.026s-40.386-90.026-90.026-90.026h-88.18c-8.309,0-15.044-6.735-15.044-15.044
		s6.735-15.044,15.044-15.044h88.18c66.23,0,120.114,53.882,120.114,120.114S380.605,446.811,314.374,446.811z"/>
</g>
<circle style="fill:#CEE8FA;" cx="228.114" cy="217.613" r="52.654"/>
<g>
	<path style="fill:#2D527C;" d="M228.12,285.312c-37.329,0-67.699-30.37-67.699-67.699s30.37-67.699,67.699-67.699
		s67.699,30.37,67.699,67.699S265.449,285.312,228.12,285.312z M228.12,180.003c-20.738,0-37.61,16.872-37.61,37.61
		s16.872,37.61,37.61,37.61s37.61-16.872,37.61-37.61S248.859,180.003,228.12,180.003z"/>
	<path style="fill:#2D527C;" d="M266.065,320.941H92.556c-8.309,0-15.044-6.735-15.044-15.044s6.735-15.044,15.044-15.044h173.509
		c8.309,0,15.044,6.735,15.044,15.044S274.373,320.941,266.065,320.941z"/>
	<path style="fill:#2D527C;" d="M244.718,399.671H115.124c-8.309,0-15.044-6.735-15.044-15.044s6.735-15.044,15.044-15.044h129.595
		c8.309,0,15.044,6.735,15.044,15.044C259.763,392.936,253.027,399.671,244.718,399.671z"/>
</g>
<rect x="147.222" y="15.044" style="fill:#CEE8FA;" width="64.189" height="56.16"/>
<g>
	<path style="fill:#2D527C;" d="M211.405,86.253h-64.189c-8.309,0-15.044-6.735-15.044-15.044V15.044
		C132.172,6.735,138.907,0,147.216,0h64.189c8.309,0,15.044,6.735,15.044,15.044v56.164
		C226.449,79.516,219.714,86.253,211.405,86.253z M162.26,56.164h34.101V30.088H162.26V56.164L162.26,56.164z"/>
	<path style="fill:#2D527C;" d="M243.167,504.979c-8.309,0-15.044-6.735-15.044-15.044v-58.168c0-8.309,6.735-15.044,15.044-15.044
		s15.044,6.735,15.044,15.044v58.168C258.212,498.244,251.476,504.979,243.167,504.979z"/>
	<path style="fill:#2D527C;" d="M282.658,512h-78.982c-8.309,0-15.044-6.735-15.044-15.044s6.735-15.044,15.044-15.044h78.982
		c8.309,0,15.044,6.735,15.044,15.044S290.967,512,282.658,512z"/>
</g>
<g>
</g>
<g>
</g>
<g>
</g>
<g>
</g>
<g>
</g>
<g>
</g>
<g>
</g>
<g>
</g>
<g>
</g>
<g>
</g>
<g>
</g>
<g>
</g>
<g>
</g>
<g>
</g>
<g>
</g>
</svg>
