<?xml version="1.0" encoding="iso-8859-1"?>
<!-- Generator: Adobe Illustrator 19.0.0, SVG Export Plug-In . SVG Version: 6.00 Build 0)  -->
<svg version="1.1" id="Layer_1" xmlns="http://www.w3.org/2000/svg" xmlns:xlink="http://www.w3.org/1999/xlink" x="0px" y="0px"
	 viewBox="0 0 512 512" style="enable-background:new 0 0 512 512;" xml:space="preserve">
<path style="fill:#2D527C;" d="M256,297.623c-65.646,0-119.054-53.408-119.054-119.054v-54.475c0-7.864,6.375-14.238,14.238-14.238
	c7.864,0,14.238,6.375,14.238,14.238v54.473c0,49.945,40.634,90.578,90.578,90.578s90.578-40.634,90.578-90.578
	c0-7.864,6.376-14.238,14.238-14.238s14.238,6.375,14.238,14.238C375.055,244.215,321.646,297.623,256,297.623z"/>
<polygon style="fill:#CEE8FA;" points="360.816,124.094 151.184,124.094 151.184,64.778 256,14.239 360.816,64.778 "/>
<path style="fill:#2D527C;" d="M360.816,138.332H151.184c-7.864,0-14.238-6.375-14.238-14.238V64.777
	c0-5.466,3.13-10.451,8.055-12.826L249.816,1.413c3.907-1.884,8.46-1.884,12.367,0L367,51.951c4.925,2.375,8.055,7.358,8.055,12.826
	v59.317C375.055,131.958,368.679,138.332,360.816,138.332z M165.423,109.855h181.155V73.72L256,30.046L165.423,73.72V109.855z"/>
<path style="fill:#CEE8FA;" d="M317.225,334.023h-14.609L256,380.64l-46.617-46.617h-14.609c-36.959,0-66.92,29.962-66.92,66.92
	v96.818h256.291v-96.818C384.146,363.985,354.184,334.023,317.225,334.023z"/>
<path style="fill:#2D527C;" d="M384.146,512H127.855c-7.864,0-14.238-6.375-14.238-14.238v-96.818
	c0-44.751,36.408-81.159,81.159-81.159h14.609c3.776,0,7.398,1.501,10.068,4.17L256,360.504l36.549-36.549
	c2.671-2.67,6.292-4.17,10.068-4.17h14.609c44.751,0,81.159,36.408,81.159,81.159v96.818C398.384,505.626,392.008,512,384.146,512z
	 M142.093,483.524h227.814v-82.58c0-29.049-23.634-52.682-52.682-52.682h-8.71l-42.448,42.446c-5.56,5.56-14.574,5.562-20.137,0
	l-42.446-42.446h-8.711c-29.049,0-52.682,23.633-52.682,52.682v82.58H142.093z"/>
<g>
</g>
<g>
</g>
<g>
</g>
<g>
</g>
<g>
</g>
<g>
</g>
<g>
</g>
<g>
</g>
<g>
</g>
<g>
</g>
<g>
</g>
<g>
</g>
<g>
</g>
<g>
</g>
<g>
</g>
</svg>
