<?xml version="1.0" encoding="iso-8859-1"?>
<!-- Generator: Adobe Illustrator 19.0.0, SVG Export Plug-In . SVG Version: 6.00 Build 0)  -->
<svg version="1.1" id="Layer_1" xmlns="http://www.w3.org/2000/svg" xmlns:xlink="http://www.w3.org/1999/xlink" x="0px" y="0px"
	 viewBox="0 0 512.001 512.001" style="enable-background:new 0 0 512.001 512.001;" xml:space="preserve">
<g>
	<path style="fill:#2D527C;" d="M455.132,247.099c-3.738,0-7.473-1.425-10.323-4.277c-5.703-5.702-5.703-14.946-0.001-20.649
		l37.764-37.765c0.737-2.64-0.807-14.474-16.772-38.222c-13.58-20.199-34.109-43.804-56.325-64.764
		c-18.907-17.838-37.968-32.741-53.672-41.963c-17.54-10.301-26.133-10.733-27.967-10.047L115.112,242.136
		c-5.7,5.702-14.947,5.702-20.649,0c-5.702-5.702-5.702-14.947,0-20.65L307.296,8.653c13.25-13.252,34.689-11.275,63.72,5.875
		c20.707,12.233,45.155,32.016,68.842,55.703c23.957,23.959,44.143,48.871,56.839,70.149c17.654,29.592,19.929,51.27,6.765,64.436
		l-38.005,38.005C462.606,245.674,458.868,247.099,455.132,247.099z"/>
	<path style="fill:#2D527C;" d="M181.204,512.001c-41.205,0-99.069-55.358-112.4-68.689c-16.378-16.378-96.19-99.973-58.849-137.315
		l32.972-32.973c5.702-5.702,14.949-5.702,20.649,0c5.702,5.702,5.702,14.947,0,20.65l-32.972,32.972
		c-2.379,2.377-2.149,12.802,8.228,31.773c10.454,19.111,28.904,42.527,50.62,64.243c21.716,21.716,45.132,40.167,64.243,50.62
		c18.973,10.378,29.398,10.608,31.773,8.228l212.877-212.877c5.702-5.7,14.947-5.702,20.65,0c5.703,5.702,5.702,14.947,0,20.649
		l-212.877,212.88C199.17,509.107,190.621,512.001,181.204,512.001z"/>
</g>
<rect x="130.737" y="159.76" transform="matrix(-0.7071 -0.7071 0.7071 -0.7071 253.1323 619.3801)" style="fill:#CEE8FA;" width="248.215" height="195.009"/>
<g>
	<path style="fill:#2D527C;" d="M273.644,428.585c-3.738,0-7.473-1.425-10.324-4.277L87.804,248.794
		c-2.738-2.738-4.277-6.452-4.277-10.324s1.539-7.587,4.277-10.324L225.702,90.248c5.702-5.702,14.947-5.702,20.65,0
		l175.516,175.514c2.738,2.738,4.277,6.452,4.277,10.324c0,3.872-1.539,7.587-4.277,10.324L283.968,424.31
		C281.118,427.16,277.379,428.585,273.644,428.585z M118.779,238.47l154.865,154.865l117.25-117.25L236.029,121.221L118.779,238.47z
		"/>
	<path style="fill:#2D527C;" d="M258.967,224.043c-3.736,0-7.473-1.425-10.324-4.277l-16.52-16.518
		c-5.702-5.702-5.703-14.947,0-20.649c5.702-5.702,14.947-5.703,20.649,0l16.52,16.518c5.702,5.702,5.702,14.947,0,20.649
		C266.44,222.616,262.705,224.043,258.967,224.043z"/>
	<path style="fill:#2D527C;" d="M319.192,284.267c-3.738,0-7.473-1.425-10.323-4.277l-16.52-16.518
		c-5.703-5.702-5.703-14.947-0.001-20.649c5.7-5.702,14.947-5.703,20.649,0l16.52,16.518c5.703,5.702,5.703,14.947,0.001,20.649
		C326.666,282.842,322.93,284.267,319.192,284.267z"/>
	<path style="fill:#2D527C;" d="M207.001,276.009c-3.736,0-7.474-1.427-10.324-4.277l-16.52-16.52
		c-5.702-5.702-5.702-14.947,0-20.65c5.702-5.702,14.947-5.702,20.65,0l16.52,16.52c5.702,5.702,5.702,14.947,0,20.65
		C214.473,274.584,210.737,276.009,207.001,276.009z"/>
	<path style="fill:#2D527C;" d="M267.224,336.234c-3.738,0-7.473-1.425-10.324-4.277l-16.518-16.52
		c-5.702-5.702-5.702-14.947,0-20.649c5.702-5.7,14.947-5.702,20.649,0l16.518,16.52c5.702,5.702,5.702,14.947,0,20.649
		C274.697,334.809,270.96,336.234,267.224,336.234z"/>
</g>
<g>
</g>
<g>
</g>
<g>
</g>
<g>
</g>
<g>
</g>
<g>
</g>
<g>
</g>
<g>
</g>
<g>
</g>
<g>
</g>
<g>
</g>
<g>
</g>
<g>
</g>
<g>
</g>
<g>
</g>
</svg>
