<?xml version="1.0" encoding="iso-8859-1"?>
<!-- Generator: Adobe Illustrator 19.0.0, SVG Export Plug-In . SVG Version: 6.00 Build 0)  -->
<svg version="1.1" id="Layer_1" xmlns="http://www.w3.org/2000/svg" xmlns:xlink="http://www.w3.org/1999/xlink" x="0px" y="0px"
	 viewBox="0 0 512 512" style="enable-background:new 0 0 512 512;" xml:space="preserve">
<path style="fill:#2D527C;" d="M122.847,512c-14.343,0.001-28.035-5.131-38.928-14.666l-5.282-4.622
	c-24.574-21.512-27.066-59.004-5.558-83.578c0.034-0.039,0.069-0.079,0.104-0.118l203.064-226.857
	c5.194-5.799,14.105-6.293,19.905-1.101c5.799,5.193,6.294,14.105,1.101,19.905L94.248,427.751
	c-11.222,12.878-9.901,32.489,2.957,43.745l5.282,4.622c6.24,5.464,14.237,8.163,22.505,7.616
	c8.273-0.55,15.836-4.289,21.297-10.528l271.509-304.483c9.408-10.753,8.451-29.987-2.313-44.646
	c-6.377-8.682-14.983-13.682-24.23-14.076c-8.649-0.358-16.807,3.338-23.022,10.44c-5.128,5.86-14.033,6.45-19.891,1.324
	c-5.858-5.128-6.45-14.033-1.324-19.891c11.786-13.468,28.338-20.764,45.442-20.041c17.702,0.757,34.376,10.073,45.748,25.558
	c18.7,25.461,19.002,59.104,0.72,79.996L167.416,491.872c-10.334,11.808-24.767,18.942-40.555,19.994
	C125.521,511.956,124.179,512,122.847,512z"/>
<path style="fill:#CEE8FA;" d="M202.238,165.849l-0.317-0.364l-21.353-24.399l44.358-27.706
	c19.432-12.137,44.093-12.086,63.475,0.128l43.289,27.282l25.933-29.632c14.578-16.656,38.26-19.138,55.667-8.494L287.737,23.228
	c-19.406-12.175-44.068-12.175-63.474,0L98.71,102.664c-33.479,23.063-28.443,60.109-15.028,75.442l107.35,120.386l64.969-72.581
	L202.238,165.849z"/>
<path style="fill:#2D527C;" d="M191.031,312.588c-0.004,0-0.008,0-0.013,0c-4.015-0.004-7.836-1.72-10.507-4.715L73.162,187.487
	c-10.458-11.951-15.537-30.224-13.342-47.792c1.707-13.656,8.452-33.178,30.893-48.639c0.152-0.103,0.304-0.206,0.461-0.303
	l125.554-79.436C228.541,3.905,242.106,0,256.001,0c13.895,0,27.459,3.905,39.228,11.288l125.025,79.101
	c4.275,2.42,7.161,7.011,7.161,12.275c0,7.595-6.005,13.785-13.527,14.085c-2.692,0.107-5.471-0.543-7.952-2.059
	c-4.638-2.836-10.001-4.335-15.509-4.335c-8.621,0-16.505,3.583-22.197,10.087l-25.931,29.632
	c-4.567,5.218-12.254,6.343-18.124,2.642l-43.289-27.282c-7.293-4.597-15.705-7.024-24.324-7.024
	c-8.555,0-16.911,2.395-24.167,6.927l-30.31,18.933l10.719,12.247l53.701,59.994c4.79,5.352,4.79,13.452,0,18.804l-64.968,72.58
	C198.86,310.881,195.04,312.588,191.031,312.588z M106.492,114.42c-13.662,9.502-17.712,20.881-18.699,28.77
	c-1.376,11.008,2.271,20.805,6.496,25.631l96.762,108.511l46.03-51.422l-45.346-50.659c-0.042-0.047-0.083-0.094-0.124-0.142
	l-0.317-0.364l-21.333-24.375c-2.722-3.11-3.941-7.257-3.337-11.346c0.605-4.087,2.971-7.705,6.477-9.894l44.359-27.706
	c11.739-7.333,25.26-11.208,39.101-11.208c13.948,0,27.557,3.93,39.355,11.366l33.099,20.86l17.999-20.568
	c4.927-5.629,10.834-10.179,17.354-13.482l-84.169-53.251c-7.229-4.536-15.614-6.949-24.2-6.949c-8.586,0-16.972,2.413-24.245,6.976
	L106.492,114.42z"/>
<path style="fill:#CEE8FA;" d="M428.316,418.417L320.969,298.492l-64.969,72.859l99.105,111.14
	c16.418,18.759,44.935,20.655,63.692,4.236l5.283-4.625C442.835,465.685,444.732,437.172,428.316,418.417z"/>
<path style="fill:#2D527C;" d="M389.092,511.997c-0.001,0-0.003,0-0.004,0c-17.09-0.001-33.342-7.371-44.589-20.222l-99.019-111.043
	c-4.767-5.345-4.767-13.418,0-18.763l64.968-72.859c2.673-2.997,6.493-4.711,10.507-4.715c0.004,0,0.01,0,0.014,0
	c4.01,0,7.829,1.707,10.503,4.694l107.346,119.925c0.034,0.039,0.069,0.079,0.104,0.118c21.508,24.574,19.014,62.066-5.557,83.575
	l-5.283,4.625C417.281,506.789,403.432,511.997,389.092,511.997z M274.887,371.349l90.74,101.759
	c5.98,6.832,14.499,10.695,23.462,10.695c0.001,0,0.003,0,0.003,0c7.509,0,14.762-2.729,20.421-7.684l5.283-4.625
	c12.857-11.254,14.178-30.861,2.962-43.739L320.99,319.65L274.887,371.349z"/>
<g>
</g>
<g>
</g>
<g>
</g>
<g>
</g>
<g>
</g>
<g>
</g>
<g>
</g>
<g>
</g>
<g>
</g>
<g>
</g>
<g>
</g>
<g>
</g>
<g>
</g>
<g>
</g>
<g>
</g>
</svg>
