<?xml version="1.0" encoding="iso-8859-1"?>
<!-- Generator: Adobe Illustrator 19.0.0, SVG Export Plug-In . SVG Version: 6.00 Build 0)  -->
<svg version="1.1" id="Layer_1" xmlns="http://www.w3.org/2000/svg" xmlns:xlink="http://www.w3.org/1999/xlink" x="0px" y="0px"
	 viewBox="0 0 512 512" style="enable-background:new 0 0 512 512;" xml:space="preserve">
<path style="fill:#2D527C;" d="M350.49,299.365H161.51c-21.271,0-38.575-17.304-38.575-38.575V88.969
	c0-21.271,17.304-38.575,38.575-38.575H350.49c21.271,0,38.575,17.304,38.575,38.575v88.918c0,7.736-6.272,14.007-14.007,14.007
	c-7.735,0-14.007-6.271-14.007-14.007V88.969c0-5.823-4.738-10.561-10.561-10.561H161.51c-5.823,0-10.561,4.737-10.561,10.561
	v171.822c0,5.823,4.738,10.561,10.561,10.561H350.49c5.823,0,10.561-4.737,10.561-10.561v-10.067
	c0-7.736,6.272-14.007,14.007-14.007c7.735,0,14.007,6.271,14.007,14.007v10.067C389.064,282.061,371.76,299.365,350.49,299.365z"/>
<rect x="193.643" y="121.088" style="fill:#CEE8FA;" width="124.73" height="107.572"/>
<path style="fill:#2D527C;" d="M318.362,242.671H193.636c-7.735,0-14.007-6.271-14.007-14.007V121.095
	c0-7.736,6.272-14.007,14.007-14.007h124.726c7.735,0,14.007,6.271,14.007,14.007v107.569
	C332.369,236.4,326.098,242.671,318.362,242.671z M207.644,214.658h96.712v-79.556h-96.712V214.658z"/>
<path style="fill:#CEE8FA;" d="M296.316,64.402h-80.631V54.322c0-22.265,18.05-40.316,40.316-40.316l0,0
	c22.265,0,40.316,18.051,40.316,40.316V64.402z"/>
<g>
	<path style="fill:#2D527C;" d="M296.316,78.408h-80.631c-7.735,0-14.007-6.271-14.007-14.007V54.322
		C201.678,24.369,226.047,0,256,0s54.322,24.369,54.322,54.322v10.079C310.322,72.138,304.052,78.408,296.316,78.408z
		 M229.984,50.395h52.032C280.115,37.744,269.172,28.014,256,28.014C242.828,28.014,231.885,37.744,229.984,50.395z"/>
	<path style="fill:#2D527C;" d="M309.871,512H193.842c-7.735,0-14.007-6.271-14.007-14.007c0-7.736,6.272-14.007,14.007-14.007
		h116.029c8.352,0,15.147-6.796,15.147-15.147c0-8.352-6.796-15.148-15.147-15.148H294.52c-7.735,0-14.007-6.271-14.007-14.007
		s6.272-14.007,14.007-14.007h15.351c23.799,0,43.16,19.363,43.16,43.162S333.67,512,309.871,512z"/>
	<path style="fill:#2D527C;" d="M237.091,453.691h-20.954c-23.799,0-43.16-19.362-43.16-43.16c0-23.799,19.362-43.16,43.16-43.16
		h13.99c6.543,0,11.867-5.323,11.867-11.867v-56.138c0-7.736,6.272-14.007,14.007-14.007s14.007,6.271,14.007,14.007v56.136
		c0,21.989-17.889,39.88-39.88,39.88h-13.99c-8.352,0-15.147,6.796-15.147,15.147s6.796,15.147,15.147,15.147h20.954
		c7.735,0,14.007,6.271,14.007,14.007C251.098,447.419,244.827,453.691,237.091,453.691z"/>
</g>
<rect x="223.604" y="285.36" style="fill:#CEE8FA;" width="64.781" height="53.604"/>
<path style="fill:#2D527C;" d="M288.391,352.974h-64.781c-7.735,0-14.007-6.271-14.007-14.007V285.36
	c0-7.736,6.272-14.007,14.007-14.007h64.781c7.735,0,14.007,6.271,14.007,14.007v53.608
	C302.397,346.704,296.127,352.974,288.391,352.974z M237.616,324.961h36.768v-25.595h-36.768V324.961z"/>
<g>
</g>
<g>
</g>
<g>
</g>
<g>
</g>
<g>
</g>
<g>
</g>
<g>
</g>
<g>
</g>
<g>
</g>
<g>
</g>
<g>
</g>
<g>
</g>
<g>
</g>
<g>
</g>
<g>
</g>
</svg>
