<?xml version="1.0" encoding="iso-8859-1"?>
<!-- Generator: Adobe Illustrator 19.0.0, SVG Export Plug-In . SVG Version: 6.00 Build 0)  -->
<svg version="1.1" id="Layer_1" xmlns="http://www.w3.org/2000/svg" xmlns:xlink="http://www.w3.org/1999/xlink" x="0px" y="0px"
	 viewBox="0 0 512 512" style="enable-background:new 0 0 512 512;" xml:space="preserve">
<polygon style="fill:#CEE8FA;" points="343.648,366.14 256,415.864 168.353,366.14 168.353,140.547 343.648,140.547 "/>
<g>
	<path style="fill:#2D527C;" d="M256,430.368c-2.469,0-4.937-0.629-7.158-1.888l-87.648-49.724
		c-4.541-2.576-7.346-7.394-7.346-12.615V140.546c0-8.01,6.495-14.504,14.504-14.504h175.295c8.009,0,14.504,6.493,14.504,14.504
		V366.14c0,5.221-2.807,10.038-7.346,12.615l-87.648,49.724C260.939,429.738,258.47,430.368,256,430.368z M182.857,357.693
		l73.145,41.496l73.145-41.496V155.049H182.857V357.693z"/>
	<path style="fill:#2D527C;" d="M256,512c-8.009,0-14.504-6.493-14.504-14.504v-81.632c0-8.01,6.495-14.504,14.504-14.504
		c8.009,0,14.504,6.493,14.504,14.504v81.632C270.504,505.507,264.01,512,256,512z"/>
	<path style="fill:#2D527C;" d="M380.187,155.049H131.813c-8.009,0-14.504-6.493-14.504-14.504c0-8.01,6.495-14.504,14.504-14.504
		h248.373c8.009,0,14.504,6.493,14.504,14.504C394.69,148.556,388.197,155.049,380.187,155.049z"/>
	<path style="fill:#2D527C;" d="M350.528,29.008H161.474c-8.009,0-14.504-6.493-14.504-14.504S153.465,0,161.474,0h189.055
		c8.009,0,14.504,6.493,14.504,14.504S358.538,29.008,350.528,29.008z"/>
	<path style="fill:#2D527C;" d="M201.877,155.049c-8.009,0-14.504-6.493-14.504-14.504V14.504c0-8.01,6.495-14.504,14.504-14.504
		h108.247c8.009,0,14.504,6.493,14.504,14.504v57.108c0,8.01-6.495,14.504-14.504,14.504c-8.009,0-14.504-6.493-14.504-14.504
		V29.008h-79.239v111.538C216.381,148.556,209.886,155.049,201.877,155.049z"/>
	<path style="fill:#2D527C;" d="M230.792,220.086h-62.439c-8.009,0-14.504-6.493-14.504-14.504s6.495-14.504,14.504-14.504h62.439
		c8.009,0,14.504,6.493,14.504,14.504S238.801,220.086,230.792,220.086z"/>
	<path style="fill:#2D527C;" d="M230.792,316.473h-62.439c-8.009,0-14.504-6.493-14.504-14.504s6.495-14.504,14.504-14.504h62.439
		c8.009,0,14.504,6.493,14.504,14.504S238.801,316.473,230.792,316.473z"/>
</g>
<g>
</g>
<g>
</g>
<g>
</g>
<g>
</g>
<g>
</g>
<g>
</g>
<g>
</g>
<g>
</g>
<g>
</g>
<g>
</g>
<g>
</g>
<g>
</g>
<g>
</g>
<g>
</g>
<g>
</g>
</svg>
