<?xml version="1.0" encoding="iso-8859-1"?>
<!-- Generator: Adobe Illustrator 19.0.0, SVG Export Plug-In . SVG Version: 6.00 Build 0)  -->
<svg version="1.1" id="Layer_1" xmlns="http://www.w3.org/2000/svg" xmlns:xlink="http://www.w3.org/1999/xlink" x="0px" y="0px"
	 viewBox="0 0 512 512" style="enable-background:new 0 0 512 512;" xml:space="preserve">
<g>
	<path style="fill:#2D527C;" d="M419.934,512H92.067c-43.493,0-78.879-35.385-78.879-78.877V78.879C13.189,35.385,48.574,0,92.067,0
		h327.865c43.493,0,78.879,35.385,78.879,78.879v75.078c0,8.567-6.948,15.515-15.515,15.515s-15.515-6.948-15.515-15.515V78.879
		c0-26.383-21.465-47.849-47.849-47.849H92.067c-26.383,0-47.849,21.465-47.849,47.849v354.244
		c0,26.383,21.465,47.847,47.849,47.847h327.865c26.383,0,47.849-21.464,47.849-47.847V247.565c0-8.567,6.948-15.515,15.515-15.515
		s15.515,6.948,15.515,15.515v185.558C498.811,476.615,463.428,512,419.934,512z"/>
	<path style="fill:#2D527C;" d="M419.934,449.941H92.067c-9.275,0-16.818-7.543-16.818-16.818V287.388
		c0-8.567,6.948-15.515,15.515-15.515s15.515,6.948,15.515,15.515v131.523h299.442V287.388c0-8.567,6.948-15.515,15.515-15.515
		s15.515,6.948,15.515,15.515v145.735C436.751,442.398,429.208,449.941,419.934,449.941z"/>
</g>
<path style="fill:#CEE8FA;" d="M410.456,226.828C405.805,145.557,338.436,81.083,256,81.083s-149.805,64.473-154.456,145.744
	H410.456z"/>
<g>
	<path style="fill:#2D527C;" d="M410.456,242.343h-308.91c-4.268,0-8.349-1.759-11.281-4.862c-2.931-3.103-4.453-7.277-4.209-11.54
		C91.203,136.013,165.851,65.57,256,65.57c90.151,0,164.8,70.443,169.945,160.372c0.244,4.262-1.278,8.437-4.209,11.54
		C418.805,240.583,414.724,242.343,410.456,242.343z M118.949,211.313h274.105c-11.605-65.509-68.913-114.714-137.053-114.714
		C187.862,96.6,130.556,145.805,118.949,211.313z"/>
	<path style="fill:#2D527C;" d="M256,242.343c-8.567,0-15.515-6.948-15.515-15.515v-79.594c0-8.567,6.948-15.515,15.515-15.515
		s15.515,6.948,15.515,15.515v79.594C271.515,235.397,264.569,242.343,256,242.343z"/>
</g>
<g>
</g>
<g>
</g>
<g>
</g>
<g>
</g>
<g>
</g>
<g>
</g>
<g>
</g>
<g>
</g>
<g>
</g>
<g>
</g>
<g>
</g>
<g>
</g>
<g>
</g>
<g>
</g>
<g>
</g>
</svg>
